<mxfile host="app.diagrams.net" agent="Mozilla/5.0 (Windows NT 10.0; Win64; x64) AppleWebKit/537.36 (KHTML, like Gecko) Chrome/129.0.0.0 Safari/537.36" version="24.7.17">
  <diagram name="Page-1" id="7xsKH6pPMwgzXLg-aELs">
    <mxGraphModel dx="880" dy="468" grid="1" gridSize="10" guides="1" tooltips="1" connect="1" arrows="1" fold="1" page="1" pageScale="1" pageWidth="850" pageHeight="1100" math="0" shadow="0">
      <root>
        <mxCell id="0" />
        <mxCell id="1" parent="0" />
        <mxCell id="hEX6vRJ63KsdVSKcUMxn-11" value="" style="edgeStyle=orthogonalEdgeStyle;rounded=0;orthogonalLoop=1;jettySize=auto;html=1;" edge="1" parent="1" source="hEX6vRJ63KsdVSKcUMxn-1" target="hEX6vRJ63KsdVSKcUMxn-2">
          <mxGeometry relative="1" as="geometry" />
        </mxCell>
        <mxCell id="hEX6vRJ63KsdVSKcUMxn-1" value="Start" style="ellipse;whiteSpace=wrap;html=1;" vertex="1" parent="1">
          <mxGeometry x="367.5" y="60" width="165" height="90" as="geometry" />
        </mxCell>
        <mxCell id="hEX6vRJ63KsdVSKcUMxn-3" value="Menunjukkan nilai dari analog potensio" style="shape=parallelogram;perimeter=parallelogramPerimeter;whiteSpace=wrap;html=1;fixedSize=1;" vertex="1" parent="1">
          <mxGeometry x="355" y="320" width="190" height="90" as="geometry" />
        </mxCell>
        <mxCell id="hEX6vRJ63KsdVSKcUMxn-14" value="" style="endArrow=none;html=1;rounded=0;" edge="1" parent="1" source="hEX6vRJ63KsdVSKcUMxn-2">
          <mxGeometry width="50" height="50" relative="1" as="geometry">
            <mxPoint x="410" y="290" as="sourcePoint" />
            <mxPoint x="450" y="230" as="targetPoint" />
          </mxGeometry>
        </mxCell>
        <mxCell id="hEX6vRJ63KsdVSKcUMxn-2" value="Tentukan nilai berdasarkan analog potensio" style="shape=parallelogram;perimeter=parallelogramPerimeter;whiteSpace=wrap;html=1;fixedSize=1;" vertex="1" parent="1">
          <mxGeometry x="360" y="190" width="180" height="90" as="geometry" />
        </mxCell>
        <mxCell id="hEX6vRJ63KsdVSKcUMxn-24" value="" style="endArrow=classic;startArrow=classic;html=1;rounded=0;" edge="1" parent="1">
          <mxGeometry width="50" height="50" relative="1" as="geometry">
            <mxPoint x="450" y="320" as="sourcePoint" />
            <mxPoint x="449.5" y="280" as="targetPoint" />
            <Array as="points" />
          </mxGeometry>
        </mxCell>
      </root>
    </mxGraphModel>
  </diagram>
</mxfile>
